<svg width="204" height="64" viewBox="0 0 204 64" fill="none" xmlns="http://www.w3.org/2000/svg">
<path fill-rule="evenodd" clip-rule="evenodd" d="M26.3115 0.0130152L38.8925 0C38.9321 10.4204 38.8925 20.8799 38.9123 31.3068C39.0048 36.4357 44.4334 38.3818 52.4839 38.7723C43.3965 39.1108 39.2557 41.8574 38.9453 46.4135L38.9651 63.9675L26.4106 64C26.3974 58.0901 26.3776 52.2062 26.3776 46.3094C26.7738 41.8574 30.7495 39.5664 39.2359 39.0326C29.006 37.9587 26.3313 35.1339 26.3511 31.2092L26.3115 0.0130152Z" fill="#003DA6"/>
<path fill-rule="evenodd" clip-rule="evenodd" d="M119.959 28.3198C120.804 28.3198 121.293 28.7624 121.088 29.3156C120.837 29.8493 120.012 30.2854 119.153 30.2789C118.361 30.2919 117.839 29.8493 118.083 29.3156C118.268 28.7624 119.133 28.3198 119.959 28.3198ZM115.131 44.1229H116.776L119.517 32.9149H117.846L115.131 44.1229ZM177.884 32.4593H176.233L175.745 34.3924C174.166 32.993 172.04 32.1404 168.896 32.3356C165.363 32.4788 162.596 33.6829 160.7 36.1562C159.307 38.2585 159.148 40.2502 160.218 42.1572C161.816 43.856 163.982 44.5264 166.532 44.4874C169.127 44.4874 171.524 43.7128 173.803 42.4566L173.387 44.1164L175.058 44.1424L177.884 32.4658V32.4593ZM174.84 38.239C175.295 36.3059 174.503 34.8415 172.575 34.0474C169.966 33.0516 166.928 33.1362 163.897 35.0498C162.087 36.2213 160.938 38.0763 161.308 40.0549C161.744 42.1052 163.474 43.0555 165.99 43.2898C168.044 43.433 169.953 43.0424 171.808 42.1117C173.519 41.1028 174.424 39.9248 174.84 38.239ZM189.343 37.458L202.267 37.4319C202.24 34.8935 200.246 33.351 196.977 33.3315C193.173 33.3705 189.884 35.2776 189.343 37.4515M188.979 38.6491C193.952 38.6426 198.879 38.623 203.825 38.623C204.704 35.1148 202.234 32.3031 197.327 32.2705C192.797 32.225 189.851 33.8587 188.015 36.6184C186.945 38.5775 186.661 40.465 188.108 42.307C189.858 44.0252 191.971 44.5199 194.236 44.4548C198.37 44.2465 200.801 42.9253 202.61 41.2005C202.155 41.0573 201.732 40.8946 201.296 40.7514C199.407 42.2874 197.274 43.4525 194.236 43.3614C190.373 43.0424 188.339 41.6496 188.979 38.6556M95.867 38.6686C96.3359 36.703 95.5236 35.219 93.5951 34.3924C90.9799 33.39 87.9089 33.4877 84.8776 35.4273C83.035 36.6249 81.9123 38.4994 82.2954 40.5236C82.7181 42.5868 84.4483 43.5827 86.9976 43.83C89.0515 43.9667 90.9733 43.5827 92.8224 42.6194C94.5527 41.5975 95.4641 40.3999 95.867 38.6686ZM98.9115 32.7912H97.2737L96.7982 34.7699C95.2132 33.3315 93.0668 32.4398 89.877 32.648C86.3371 32.7847 83.5568 34.0214 81.668 36.5337C80.2745 38.6946 80.1028 40.7058 81.1727 42.6584C82.7973 44.4093 84.9635 45.0927 87.5127 45.0341C90.1345 45.0341 92.5583 44.2596 94.8235 42.9188L94.4141 44.6566L96.0915 44.6826L98.8983 32.7977L98.9115 32.7912ZM78.7555 40.7253C73.175 43.6933 67.7398 44.6175 62.2385 42.1377C58.9826 40.6017 57.3118 38.2716 58.2364 34.7829C59.6563 30.4416 65.4283 26.9334 72.6599 26.5169C76.1469 26.4908 79.0791 27.402 81.45 29.2115C81.5623 28.6843 81.6746 28.0855 81.7604 27.5387C78.564 25.5406 74.4562 24.779 69.0276 25.7358C64.3386 26.7121 60.4025 28.6127 57.7278 32.0362C55.6541 35.2645 55.0201 38.5059 58.6722 41.8123C64.4179 45.9063 71.1409 45.6654 78.4253 42.3265C78.531 41.7993 78.6367 41.2591 78.7555 40.7253ZM100.847 33.7545L105.41 44.7933L115.012 33.6504H113.328L105.985 42.1638L102.458 33.735L100.847 33.748V33.7545ZM121.848 44.1164H123.717L125.341 37.8745C126.662 34.0279 129.495 33.0646 133.399 33.2078C135.413 33.4226 136.397 34.3273 135.888 36.7876C135.254 39.2283 134.627 41.6691 133.98 44.1229H135.915L137.969 36.384C138.53 33.3119 136.654 32.0492 133.881 31.9386C130.863 31.828 128.419 32.596 126.365 33.9628L126.768 32.3747H124.919L121.848 44.1099V44.1164ZM140.28 44.0903H141.911L143.959 35.8894L144.778 35.4598L156.639 44.0773L158.937 44.0903L146.396 34.6072L162.087 26.1003H159.412L144.368 34.3078L146.396 26.1133L144.751 26.1003L140.28 44.0838V44.0903ZM180.202 44.0383L182.368 32.264L184.066 32.251L183.775 33.8456C185.261 32.2771 187.11 31.9842 189.184 32.5569L188.259 33.7936C185.433 33.3119 183.683 34.2362 183.234 36.8787L181.794 44.0513L180.196 44.0318L180.202 44.0383Z" fill="#003DA6"/>
<path fill-rule="evenodd" clip-rule="evenodd" d="M36.4091 6.52875C30.1153 8.29261 23.6696 10.9416 17.9042 14.6776H17.8315C5.46189 22.5271 1.67109 31.1837 0.508757 35.8309C0.469132 35.9676 0.442717 36.1108 0.409696 36.2475C0.33705 36.5794 0.271006 36.8918 0.224777 37.1782C0.204964 37.2954 0.178549 37.4125 0.158736 37.5362C-0.0129725 38.6101 0.000234761 39.2219 0.000234761 39.2219L0.0398607 39.1699C-0.098827 45.978 4.62316 53.7298 16.6097 55.3049C30.3729 57.1339 44.5322 54.4393 55.3565 47.9826C44.6445 52.5908 33.0938 54.4523 22.4412 52.8251C1.15597 49.5838 4.76845 30.9559 22.6856 18.4852C44.3539 3.39807 77.9824 0.970325 78.3522 21.7591C79.607 5.76073 59.6228 0.0395818 36.4223 6.52875" fill="#EC174F"/>
<path fill-rule="evenodd" clip-rule="evenodd" d="M69.9984 51.1909H71.8277L72.8448 59.0469L77.23 51.1909H79.0395L77.0384 60.4853H75.8233L77.0054 54.9985C77.0384 54.8098 77.1177 54.4908 77.2168 54.0547C77.3224 53.6187 77.4281 53.15 77.5338 52.6424L73.1552 60.4853H71.8938L70.8701 52.6424L70.8041 52.9287C70.7579 53.1565 70.6852 53.5015 70.5994 53.9701C70.5135 54.4388 70.4409 54.7772 70.3946 54.9985L69.2125 60.4853H67.9907L69.9918 51.1909H69.9984Z" fill="#003DA6"/>
<path fill-rule="evenodd" clip-rule="evenodd" d="M83.3913 56.379C83.6621 56.3464 83.8668 56.2358 83.9989 56.0535C84.0716 55.9559 84.131 55.8062 84.1706 55.6175C84.2499 55.2334 84.1706 54.9471 83.9329 54.7778C83.6885 54.6021 83.3055 54.5175 82.7838 54.5175C82.1828 54.5175 81.7205 54.6737 81.3969 54.9991C81.2186 55.1749 81.0667 55.4417 80.9544 55.7867H79.8779C80.0761 54.9536 80.4789 54.3678 81.0733 54.0424C81.6743 53.7169 82.3215 53.5542 83.0215 53.5542C83.8338 53.5542 84.4546 53.7104 84.8905 54.0098C85.3264 54.3092 85.4783 54.7843 85.3396 55.4287L84.5009 59.3339C84.4744 59.4511 84.481 59.5487 84.5075 59.6203C84.5405 59.6919 84.6395 59.7309 84.798 59.7309C84.8443 59.7309 84.9103 59.731 84.9764 59.7244C85.0424 59.7244 85.115 59.7114 85.1877 59.6984L85.0028 60.538C84.8112 60.5901 84.6726 60.6161 84.5735 60.6357C84.4744 60.6487 84.349 60.6552 84.1839 60.6552C83.7876 60.6552 83.53 60.512 83.4112 60.2321C83.3451 60.0824 83.3253 59.8741 83.3451 59.6073C83.0413 59.9132 82.6451 60.1735 82.1564 60.4013C81.6677 60.6226 81.1591 60.7333 80.6308 60.7333C79.9902 60.7333 79.5147 60.5445 79.1911 60.1605C78.8675 59.7765 78.7684 59.3014 78.8939 58.7286C79.0326 58.0973 79.3364 57.6091 79.8119 57.2642C80.2808 56.9192 80.8487 56.7044 81.5158 56.6263L83.4046 56.3985L83.3913 56.379ZM81.0997 59.744C81.5092 59.744 81.9186 59.6528 82.3413 59.4641C83.0479 59.1582 83.4772 58.6505 83.6291 57.9541L83.8206 57.0364C83.6621 57.1275 83.464 57.1991 83.2329 57.2576C82.9951 57.3162 82.7706 57.3553 82.546 57.3813L81.8328 57.4724C81.3969 57.5245 81.0667 57.6156 80.8289 57.7328C80.4327 57.9346 80.1883 58.247 80.0893 58.683C80.0166 59.0085 80.0827 59.2688 80.2808 59.4576C80.4855 59.6463 80.7563 59.744 81.0865 59.744" fill="#003DA6"/>
<path fill-rule="evenodd" clip-rule="evenodd" d="M88.1134 51.1909H89.2229L88.0539 56.5866L91.6466 53.7033H93.1193L89.9427 56.2417L91.8117 60.4853H90.3324L88.9191 57.0683L87.7633 57.9404L87.2218 60.4853H86.1123L88.1134 51.1909Z" fill="#003DA6"/>
<path fill-rule="evenodd" clip-rule="evenodd" d="M94.1629 53.7358H95.3384L93.8855 60.4853H92.71L94.1629 53.7358ZM94.7176 51.1909H95.8932L95.6092 52.4796H94.4337L94.7176 51.1909Z" fill="#003DA6"/>
<path fill-rule="evenodd" clip-rule="evenodd" d="M97.0885 53.7039H98.1847L97.98 54.6672C98.3895 54.2702 98.7989 53.9838 99.1952 53.8145C99.598 53.6453 100.021 53.5542 100.463 53.5542C101.441 53.5542 102.022 53.8861 102.22 54.563C102.332 54.9275 102.319 55.4547 102.167 56.1382L101.229 60.486H100.054L100.978 56.2163C101.064 55.7997 101.077 55.4678 101.005 55.2204C100.886 54.7974 100.562 54.5891 100.021 54.5891C99.7433 54.5891 99.5122 54.6151 99.3273 54.6737C98.9905 54.7648 98.6669 54.9536 98.3697 55.2334C98.1253 55.4612 97.9536 55.6891 97.8479 55.9234C97.7357 56.1642 97.6366 56.5026 97.5375 56.9452L96.7715 60.4925H95.6157L97.0686 53.7104L97.0885 53.7039Z" fill="#003DA6"/>
<path fill-rule="evenodd" clip-rule="evenodd" d="M108.184 53.9769C108.369 54.1266 108.547 54.3414 108.712 54.6213L108.897 53.7687H109.96L108.633 59.9324C108.448 60.7915 108.177 61.475 107.814 61.9696C107.134 62.8873 106.13 63.3495 104.796 63.3495C104.056 63.3495 103.468 63.1867 103.032 62.8613C102.597 62.5359 102.425 62.0282 102.511 61.3253H103.686C103.68 61.6312 103.739 61.8655 103.871 62.0282C104.076 62.282 104.459 62.4057 105.02 62.4057C105.912 62.4057 106.552 62.0933 106.962 61.4815C107.206 61.117 107.418 60.4726 107.603 59.5419C107.299 59.8868 106.969 60.1407 106.605 60.3099C106.242 60.4791 105.793 60.5637 105.258 60.5637C104.512 60.5637 103.917 60.3034 103.468 59.7827C103.026 59.262 102.933 58.4029 103.191 57.1987C103.435 56.0597 103.904 55.1745 104.604 54.5432C105.304 53.9053 106.051 53.5864 106.843 53.5864C107.385 53.5864 107.827 53.7166 108.17 53.9769M106.836 54.5888C106.024 54.5888 105.39 54.9663 104.928 55.7148C104.677 56.1183 104.485 56.639 104.353 57.2899C104.188 58.0514 104.215 58.6307 104.446 59.0342C104.677 59.4312 105.053 59.633 105.588 59.633C106.42 59.633 107.081 59.2685 107.576 58.5265C107.853 58.1035 108.052 57.6218 108.17 57.0621C108.355 56.2224 108.309 55.5976 108.045 55.1941C107.781 54.7905 107.378 54.5888 106.83 54.5888" fill="#003DA6"/>
<path fill-rule="evenodd" clip-rule="evenodd" d="M116.056 51.1909H117.331L115.567 59.3789H120.336L120.098 60.4853H114.048L116.056 51.1909Z" fill="#003DA6"/>
<path fill-rule="evenodd" clip-rule="evenodd" d="M122.653 53.7358H123.829L122.376 60.4853H121.2L122.653 53.7358ZM123.208 51.1909H124.383L124.099 52.4796H122.924L123.201 51.1909H123.208Z" fill="#003DA6"/>
<path fill-rule="evenodd" clip-rule="evenodd" d="M126.147 53.7031L126.794 59.2225L129.905 53.7031H131.166L127.118 60.4852H125.883L124.806 53.7031H126.147Z" fill="#003DA6"/>
<path fill-rule="evenodd" clip-rule="evenodd" d="M137.246 54.769C137.404 55.114 137.477 55.511 137.45 55.9601C137.45 56.2726 137.378 56.7672 137.232 57.4506H132.193C132.068 58.1405 132.108 58.6938 132.332 59.1038C132.557 59.5204 132.986 59.7287 133.627 59.7287C134.234 59.7287 134.756 59.5334 135.198 59.1429C135.449 58.9151 135.654 58.6547 135.806 58.3488H136.942C136.856 58.5962 136.697 58.876 136.46 59.1819C136.229 59.4879 135.984 59.7417 135.733 59.9304C135.311 60.2689 134.828 60.4967 134.28 60.6139C133.99 60.6789 133.666 60.7115 133.31 60.7115C132.458 60.7115 131.797 60.4056 131.335 59.7938C130.873 59.1819 130.76 58.3228 130.998 57.2163C131.229 56.1294 131.725 55.2442 132.464 54.5608C133.21 53.8839 134.069 53.5454 135.033 53.5454C135.522 53.5454 135.971 53.6561 136.38 53.8839C136.79 54.1052 137.074 54.3981 137.239 54.7625M136.229 56.5459C136.288 56.0513 136.268 55.6542 136.156 55.3613C135.958 54.8146 135.489 54.5347 134.749 54.5347C134.214 54.5347 133.732 54.7235 133.29 55.101C132.847 55.4785 132.55 55.9601 132.405 56.5394H136.229V56.5459Z" fill="#003DA6"/>
<path fill-rule="evenodd" clip-rule="evenodd" d="M139.148 58.3552C139.095 58.7327 139.128 59.0256 139.247 59.2273C139.451 59.5983 139.92 59.7806 140.64 59.7806C141.069 59.7806 141.466 59.6895 141.829 59.5072C142.199 59.325 142.423 59.0386 142.502 58.6611C142.568 58.3682 142.489 58.1469 142.258 57.9972C142.106 57.9061 141.802 57.7954 141.333 57.6783L140.468 57.4505C139.914 57.3073 139.517 57.1446 139.28 56.9688C138.844 56.6564 138.685 56.2333 138.811 55.6866C138.949 55.0422 139.293 54.5281 139.841 54.131C140.396 53.734 141.069 53.5322 141.862 53.5322C142.899 53.5322 143.579 53.8316 143.909 54.4304C144.114 54.8079 144.167 55.218 144.061 55.6541H142.971C143.004 55.4002 142.965 55.1659 142.846 54.9511C142.648 54.6517 142.218 54.502 141.558 54.502C141.122 54.502 140.772 54.5801 140.515 54.7493C140.257 54.9186 140.099 55.1334 140.032 55.4002C139.966 55.6931 140.065 55.9339 140.323 56.1097C140.475 56.2138 140.706 56.3114 141.023 56.3895L141.75 56.5718C142.535 56.7736 143.051 56.9623 143.295 57.1511C143.678 57.444 143.803 57.8996 143.671 58.5244C143.539 59.1297 143.202 59.6504 142.641 60.0865C142.086 60.5226 141.327 60.7439 140.382 60.7439C139.359 60.7439 138.685 60.5161 138.355 60.0539C138.031 59.5983 137.926 59.0321 138.038 58.3552H139.154H139.148Z" fill="#003DA6"/>
<path fill-rule="evenodd" clip-rule="evenodd" d="M150.414 51.1895H151.709L150.876 55.0296H155.783L156.615 51.1895H157.897L155.896 60.4839H154.608L155.546 56.1361H150.639L149.701 60.4839H148.413L150.414 51.1895Z" fill="#003DA6"/>
<path fill-rule="evenodd" clip-rule="evenodd" d="M162.282 56.377C162.559 56.3445 162.764 56.2338 162.896 56.0516C162.969 55.954 163.022 55.8043 163.068 55.6155C163.147 55.2315 163.068 54.9451 162.83 54.7759C162.586 54.6001 162.203 54.5155 161.681 54.5155C161.08 54.5155 160.611 54.6717 160.294 54.9972C160.116 55.1729 159.964 55.4398 159.852 55.7847H158.775C158.973 54.9516 159.376 54.3658 159.977 54.0404C160.578 53.715 161.225 53.5522 161.925 53.5522C162.738 53.5522 163.358 53.7085 163.794 54.0079C164.23 54.3073 164.382 54.7824 164.243 55.4267L163.398 59.332C163.378 59.4491 163.378 59.5468 163.411 59.6183C163.444 59.6899 163.537 59.729 163.695 59.729C163.748 59.729 163.808 59.729 163.867 59.7225C163.94 59.7225 164.006 59.7095 164.085 59.6965L163.9 60.5361C163.715 60.5881 163.57 60.6142 163.471 60.6337C163.378 60.6467 163.246 60.6532 163.081 60.6532C162.685 60.6532 162.421 60.51 162.302 60.2302C162.236 60.0805 162.216 59.8722 162.236 59.6053C161.932 59.9112 161.536 60.1716 161.047 60.3994C160.565 60.6207 160.056 60.7313 159.521 60.7313C158.881 60.7313 158.399 60.5426 158.082 60.1586C157.758 59.7746 157.659 59.2994 157.785 58.7267C157.923 58.0953 158.227 57.6072 158.703 57.2622C159.171 56.9172 159.739 56.7025 160.406 56.6244L162.295 56.3965L162.282 56.377ZM159.99 59.742C160.4 59.742 160.809 59.6509 161.232 59.4621C161.939 59.1562 162.368 58.6486 162.526 57.9521L162.718 57.0344C162.559 57.1255 162.361 57.1971 162.13 57.2557C161.899 57.3143 161.668 57.3533 161.443 57.3794L160.723 57.4705C160.294 57.5225 159.957 57.6137 159.72 57.7308C159.323 57.9326 159.072 58.245 158.98 58.6811C158.907 59.0065 158.98 59.2669 159.178 59.4556C159.383 59.6444 159.647 59.742 159.984 59.742" fill="#003DA6"/>
<path fill-rule="evenodd" clip-rule="evenodd" d="M166.39 53.7343H167.519L167.328 54.6325C167.625 54.3266 167.929 54.0858 168.239 53.9166C168.688 53.6627 169.17 53.5391 169.698 53.5391C170.478 53.5391 171.072 53.8319 171.488 54.4242C171.904 55.01 171.997 55.8562 171.759 56.9431C171.442 58.4206 170.821 59.475 169.903 60.1063C169.322 60.5099 168.701 60.7051 168.041 60.7051C167.526 60.7051 167.116 60.588 166.806 60.3732C166.628 60.2495 166.449 60.0282 166.264 59.7223L165.518 63.1849H164.362L166.396 53.7343H166.39ZM170.55 57.0538C170.669 56.5135 170.689 56.0514 170.61 55.6609C170.471 54.9124 170.009 54.5414 169.21 54.5414C168.411 54.5414 167.777 54.9384 167.314 55.726C167.063 56.149 166.865 56.6828 166.727 57.3336C166.614 57.8608 166.601 58.3034 166.68 58.6679C166.826 59.3708 167.295 59.7223 168.087 59.7223C168.629 59.7223 169.124 59.4945 169.58 59.0519C170.035 58.6028 170.359 57.9389 170.544 57.0538" fill="#003DA6"/>
<path fill-rule="evenodd" clip-rule="evenodd" d="M173.707 53.7343H174.83L174.638 54.6325C174.935 54.3266 175.239 54.0858 175.55 53.9166C175.992 53.6627 176.481 53.5391 177.002 53.5391C177.782 53.5391 178.383 53.8319 178.792 54.4242C179.208 55.01 179.301 55.8562 179.063 56.9431C178.746 58.4206 178.125 59.475 177.214 60.1063C176.626 60.5099 176.012 60.7051 175.351 60.7051C174.836 60.7051 174.427 60.588 174.116 60.3732C173.938 60.2495 173.753 60.0282 173.575 59.7223L172.829 63.1849H171.673L173.707 53.7343ZM177.868 57.0538C177.98 56.5135 178 56.0514 177.927 55.6609C177.795 54.9124 177.326 54.5414 176.527 54.5414C175.728 54.5414 175.094 54.9384 174.625 55.726C174.381 56.149 174.182 56.6828 174.044 57.3336C173.931 57.8608 173.918 58.3034 173.998 58.6679C174.149 59.3708 174.618 59.7223 175.411 59.7223C175.946 59.7223 176.448 59.4945 176.897 59.0519C177.352 58.6028 177.676 57.9389 177.868 57.0538Z" fill="#003DA6"/>
<path fill-rule="evenodd" clip-rule="evenodd" d="M181.111 53.7344H182.286L180.84 60.4839H179.665L181.117 53.7344H181.111ZM181.659 51.1895H182.841L182.557 52.4782H181.382L181.666 51.1895H181.659Z" fill="#003DA6"/>
<path fill-rule="evenodd" clip-rule="evenodd" d="M189.135 54.769C189.293 55.114 189.359 55.511 189.34 55.9601C189.34 56.2726 189.274 56.7672 189.122 57.4506H184.089C183.957 58.1405 184.003 58.6938 184.228 59.1038C184.452 59.5204 184.882 59.7287 185.529 59.7287C186.13 59.7287 186.652 59.5334 187.094 59.1429C187.345 58.9151 187.556 58.6547 187.702 58.3488H188.838C188.752 58.5962 188.593 58.876 188.362 59.1819C188.131 59.4879 187.88 59.7417 187.636 59.9304C187.213 60.2689 186.724 60.4967 186.183 60.6139C185.892 60.6789 185.569 60.7115 185.212 60.7115C184.36 60.7115 183.693 60.4056 183.237 59.7938C182.775 59.1819 182.663 58.3228 182.907 57.2163C183.145 56.1294 183.634 55.2442 184.373 54.5608C185.119 53.8839 185.978 53.5454 186.942 53.5454C187.431 53.5454 187.88 53.6561 188.289 53.8839C188.706 54.1052 188.99 54.3981 189.148 54.7625M188.144 56.5459C188.204 56.0513 188.177 55.6542 188.072 55.3613C187.873 54.8146 187.405 54.5347 186.671 54.5347C186.137 54.5347 185.654 54.7235 185.212 55.101C184.769 55.4785 184.472 55.9601 184.327 56.5394H188.144V56.5459Z" fill="#003DA6"/>
<path fill-rule="evenodd" clip-rule="evenodd" d="M191.38 53.7019H192.476L192.225 54.8735C192.364 54.6457 192.641 54.3723 193.064 54.0404C193.486 53.715 193.922 53.5522 194.385 53.5522C194.411 53.5522 194.444 53.5522 194.49 53.5522C194.543 53.5522 194.629 53.5653 194.754 53.5783L194.49 54.7824C194.424 54.7694 194.358 54.7564 194.305 54.7564C194.246 54.7564 194.186 54.7564 194.114 54.7564C193.533 54.7564 193.044 54.9386 192.654 55.3096C192.265 55.6741 192.014 56.1037 191.908 56.5788L191.069 60.4775H189.914L191.373 53.6954L191.38 53.7019Z" fill="#003DA6"/>
</svg>
