<svg width="390" height="408" viewBox="0 0 390 408" fill="none" xmlns="http://www.w3.org/2000/svg">
<path fill-rule="evenodd" clip-rule="evenodd" d="M379.21 372.667C376.697 374.752 373.75 376.52 370.37 377.971C366.99 379.421 363.307 380.555 359.32 381.371C355.247 382.187 350.87 382.821 346.19 383.275C341.597 383.637 336.743 383.819 331.63 383.819C326.603 383.819 321.36 383.773 315.9 383.683C310.527 383.501 305.023 383.275 299.39 383.003C293.757 382.731 288.123 382.504 282.49 382.323C276.77 382.051 271.093 381.915 265.46 381.915C259.913 381.824 254.41 381.915 248.95 382.187C243.49 382.459 238.203 382.912 233.09 383.547C227.977 384.181 222.993 384.997 218.14 385.995C213.287 386.901 208.563 387.944 203.97 389.123C199.377 390.302 194.957 391.571 190.71 392.931C186.377 394.2 182.13 395.47 177.97 396.739C173.897 398.008 169.91 399.278 166.01 400.547C162.11 401.726 158.34 402.814 154.7 403.811C150.973 404.808 147.333 405.67 143.78 406.395C140.227 407.03 136.76 407.483 133.38 407.755C129.913 408.027 126.533 408.073 123.24 407.891C119.947 407.619 116.74 407.075 113.62 406.259C110.413 405.443 107.25 404.355 104.13 402.995C101.097 401.635 98.15 400.003 95.29 398.099C92.3433 396.195 89.4833 394.064 86.71 391.707C84.0233 389.349 81.38 386.811 78.78 384.091C76.2667 381.371 73.84 378.515 71.5 375.523C69.2467 372.44 67.08 369.221 65 365.866C62.92 362.602 61.0133 359.202 59.28 355.666C57.5467 352.13 55.9433 348.503 54.47 344.786C52.9967 341.069 51.6967 337.306 50.57 333.498C49.4433 329.69 48.49 325.882 47.71 322.074C46.93 318.175 46.28 314.276 45.76 310.377C45.24 306.479 44.85 302.535 44.59 298.545C44.2433 294.556 43.9833 290.521 43.81 286.441C43.7233 282.361 43.5933 278.235 43.42 274.065C43.3333 269.894 43.2467 265.678 43.16 261.416C42.9867 257.155 42.8133 252.803 42.64 248.36C42.38 243.917 42.0333 239.429 41.6 234.896C41.2533 230.272 40.7333 225.602 40.04 220.888C39.3467 216.173 38.5233 211.367 37.57 206.471C36.6167 201.575 35.4467 196.589 34.06 191.511C32.6733 186.434 31.1567 181.266 29.51 176.007C27.95 170.839 26.26 165.58 24.44 160.23C22.62 154.972 20.8 149.713 18.98 144.454C17.0733 139.105 15.2533 133.801 13.52 128.542C11.7867 123.283 10.14 118.07 8.58 112.902C7.02 107.733 5.63333 102.656 4.42 97.6693C3.20667 92.6825 2.21 87.7864 1.43 82.981C0.736667 78.1756 0.303333 73.5062 0.13 68.9727C-0.13 64.53 0 60.1779 0.52 55.9165C1.04 51.7457 1.95 47.7563 3.25 43.9483C4.55 40.2309 6.24 36.6495 8.32 33.2041C10.3133 29.8493 12.61 26.7213 15.21 23.8199C17.8967 20.9185 20.8 18.2438 23.92 15.7957C27.1267 13.4384 30.5067 11.3076 34.06 9.40361C37.6133 7.49957 41.34 5.86754 45.24 4.50751C49.14 3.14749 53.17 2.1048 57.33 1.37945C61.4033 0.654108 65.5633 0.200766 69.81 0.0194289C74.0567 -0.0712395 78.3033 0.155432 82.55 0.699442C86.7967 1.24345 91 2.1048 95.16 3.28349C99.2333 4.46218 103.307 6.04888 107.38 8.04358C111.367 9.94762 115.267 12.1237 119.08 14.5717C122.893 17.1104 126.663 19.8305 130.39 22.7319C134.117 25.6332 137.8 28.716 141.44 31.98C145.08 35.2441 148.72 38.5535 152.36 41.9082C156 45.263 159.597 48.6177 163.15 51.9724C166.79 55.4178 170.43 58.7725 174.07 62.0366C177.71 65.21 181.393 68.2927 185.12 71.2848C188.847 74.2768 192.617 77.0422 196.43 79.5809C200.243 82.1197 204.1 84.3864 208 86.3811C211.987 88.3758 216.06 90.0531 220.22 91.4132C224.293 92.7732 228.453 93.8159 232.7 94.5412C236.947 95.3572 241.193 95.9013 245.44 96.1733C249.687 96.5359 253.933 96.7173 258.18 96.7173C262.427 96.8079 266.63 96.7626 270.79 96.5813C274.95 96.4906 279.023 96.3546 283.01 96.1733C286.997 95.9919 290.853 95.9012 294.58 95.9012C298.307 95.8106 301.903 95.8559 305.37 96.0373C308.837 96.2186 312.087 96.6266 315.12 97.2613C318.24 97.8053 321.1 98.6213 323.7 99.7093C326.3 100.797 328.683 102.203 330.85 103.925C333.017 105.648 334.967 107.688 336.7 110.046C338.347 112.312 339.863 114.896 341.25 117.798C342.637 120.699 343.85 123.872 344.89 127.318C346.017 130.673 347.013 134.299 347.88 138.198C348.833 142.097 349.7 146.222 350.48 150.574C351.26 154.836 352.04 159.324 352.82 164.039C353.6 168.753 354.38 173.649 355.16 178.727C355.94 183.804 356.807 189.018 357.76 194.367C358.713 199.717 359.797 205.157 361.01 210.687C362.137 216.309 363.437 222.021 364.91 227.824C366.297 233.627 367.813 239.475 369.46 245.368C371.02 251.352 372.623 257.291 374.27 263.184C375.917 269.078 377.52 274.926 379.08 280.729C380.553 286.532 381.983 292.198 383.37 297.729C384.67 303.351 385.84 308.791 386.88 314.049C387.92 319.308 388.7 324.386 389.22 329.282C389.74 334.087 390 338.666 390 343.018C390 347.37 389.61 351.359 388.83 354.986C388.05 358.704 386.88 362.058 385.32 365.05C383.76 367.952 381.723 370.49 379.21 372.667Z" fill="#E08438" fill-opacity="0.7"/>
<g clip-path="url(#clip0_150_1976)">
<path d="M373.473 351.888C371.876 338.549 363.919 325.406 351.674 321.065C356.503 334.795 356.502 349.857 351.671 363.585C349.789 368.873 347.166 374.551 348.936 379.88C350.037 383.196 352.731 385.733 355.743 387.319C358.754 388.905 362.096 389.661 365.397 390.402L366.046 390.96C371.285 378.67 375.07 365.227 373.473 351.888Z" fill="#F0F0F0"/>
<path d="M351.552 321.318C358.683 329.619 363.115 340.043 364.219 351.109C364.497 353.487 364.413 355.896 363.97 358.247C363.466 360.522 362.385 362.616 360.84 364.311C359.429 365.921 357.806 367.399 356.797 369.337C356.294 370.338 356.001 371.437 355.936 372.563C355.871 373.689 356.036 374.817 356.42 375.873C357.312 378.528 359.068 380.693 360.857 382.747C362.842 385.029 364.94 387.365 365.784 390.39C365.886 390.756 366.428 390.57 366.325 390.204C364.857 384.942 359.94 381.953 357.595 377.214C356.501 375.002 356.042 372.435 357.068 370.1C357.965 368.059 359.637 366.534 361.079 364.916C362.61 363.286 363.734 361.291 364.352 359.106C364.909 356.786 365.082 354.384 364.864 352.004C364.456 346.638 363.237 341.371 361.254 336.398C359.021 330.708 355.867 325.458 351.93 320.874C351.686 320.59 351.31 321.036 351.552 321.318Z" fill="white"/>
<path d="M364.066 347.524C365.828 347.08 367.38 345.999 368.446 344.475C369.512 342.951 370.022 341.083 369.885 339.205C369.856 338.825 369.286 338.854 369.315 339.234C369.446 340.983 368.971 342.723 367.976 344.14C366.98 345.557 365.53 346.558 363.887 346.962C363.53 347.05 363.711 347.612 364.066 347.524Z" fill="white"/>
<path d="M361.659 363.593C358.476 361.618 356.127 358.471 355.079 354.777C354.975 354.411 354.434 354.597 354.537 354.962C355.635 358.804 358.086 362.075 361.402 364.122C361.718 364.317 361.973 363.786 361.659 363.593Z" fill="white"/>
<path d="M358.492 331.269C357.844 331.589 357.131 331.737 356.415 331.699C355.699 331.661 355.004 331.439 354.391 331.053C354.077 330.854 353.823 331.385 354.135 331.582C354.814 332.005 355.582 332.25 356.373 332.293C357.163 332.337 357.952 332.178 358.671 331.832C358.741 331.805 358.799 331.752 358.832 331.682C358.866 331.613 358.873 331.532 358.852 331.458C358.828 331.383 358.777 331.322 358.709 331.287C358.642 331.251 358.564 331.245 358.492 331.269Z" fill="white"/>
<path d="M314.349 344.89C314.542 345.02 314.734 345.15 314.927 345.285C317.506 347.047 319.942 349.024 322.213 351.195C322.391 351.36 322.569 351.53 322.743 351.7C328.16 356.993 332.584 363.285 335.79 370.255C337.063 373.03 338.132 375.902 338.986 378.845C340.165 382.91 341.132 387.415 343.467 390.74C343.706 391.09 343.967 391.424 344.246 391.74H365.341C365.389 391.715 365.437 391.695 365.485 391.67L366.327 391.71C366.294 391.555 366.255 391.395 366.221 391.24C366.202 391.15 366.178 391.06 366.159 390.97C366.145 390.91 366.13 390.85 366.12 390.795C366.116 390.775 366.111 390.755 366.106 390.74C366.096 390.685 366.082 390.635 366.072 390.585C365.86 389.69 365.642 388.795 365.418 387.9C365.418 387.895 365.418 387.895 365.413 387.89C363.685 381.075 361.394 374.35 358.194 368.2C358.097 368.015 358.001 367.825 357.895 367.64C356.438 364.877 354.765 362.241 352.895 359.76C351.866 358.405 350.772 357.105 349.617 355.865C346.627 352.667 343.171 349.978 339.376 347.895C331.81 343.745 323.051 342.155 314.965 344.69C314.758 344.755 314.556 344.82 314.349 344.89Z" fill="#F0F0F0"/>
<path d="M314.396 345.169C324.901 347.336 334.481 352.887 341.775 361.033C343.376 362.758 344.704 364.734 345.712 366.888C346.629 369.02 346.98 371.368 346.728 373.688C346.534 375.856 346.095 378.05 346.413 380.229C346.591 381.342 346.994 382.404 347.595 383.343C348.196 384.283 348.981 385.081 349.899 385.683C352.15 387.246 354.807 387.875 357.426 388.397C360.333 388.977 363.362 389.531 365.789 391.417C366.083 391.646 366.407 391.159 366.114 390.93C361.892 387.648 356.234 388.337 351.615 386.019C349.46 384.938 347.605 383.175 347.071 380.669C346.604 378.478 347.055 376.215 347.269 374.022C347.547 371.762 347.288 369.466 346.515 367.335C345.616 365.134 344.363 363.108 342.809 361.344C339.373 357.314 335.348 353.871 330.882 351.141C325.802 347.995 320.241 345.776 314.44 344.578C314.081 344.504 314.04 345.095 314.396 345.169Z" fill="white"/>
<path d="M339.575 358.266C340.724 356.809 341.338 354.975 341.306 353.092C341.274 351.208 340.598 349.398 339.4 347.984C339.156 347.699 338.718 348.078 338.962 348.364C340.08 349.678 340.709 351.365 340.736 353.119C340.762 354.873 340.184 356.579 339.106 357.929C338.872 358.223 339.342 358.558 339.575 358.266Z" fill="white"/>
<path d="M346.965 372.602C343.28 373.016 339.58 371.972 336.602 369.678C336.308 369.451 335.983 369.938 336.278 370.165C339.38 372.546 343.233 373.625 347.067 373.185C347.432 373.142 347.328 372.56 346.965 372.602Z" fill="white"/>
<path d="M325.705 348.774C325.373 349.434 324.889 349.999 324.295 350.416C323.702 350.834 323.018 351.092 322.305 351.167C321.939 351.204 322.044 351.787 322.407 351.75C323.194 351.663 323.949 351.377 324.606 350.917C325.262 350.457 325.801 349.837 326.173 349.112C326.214 349.046 326.229 348.967 326.216 348.891C326.202 348.814 326.161 348.746 326.101 348.7C326.039 348.655 325.962 348.638 325.888 348.652C325.814 348.666 325.748 348.71 325.705 348.774Z" fill="white"/>
<path d="M211.139 103.854C210.631 104.513 210.268 105.28 210.075 106.1C209.883 106.921 209.866 107.775 210.025 108.603C210.185 109.431 210.518 110.213 211 110.893C211.482 111.573 212.101 112.135 212.815 112.539L209.563 132.789L218.949 128.461L220.598 109.896C221.173 108.605 221.271 107.141 220.876 105.779C220.48 104.418 219.618 103.255 218.452 102.51C217.286 101.766 215.897 101.491 214.55 101.739C213.202 101.986 211.989 102.739 211.139 103.854Z" fill="#9E616A"/>
<path d="M295.577 383.994L287.902 383.994L284.251 353.241L295.578 353.241L295.577 383.994Z" fill="#9E616A"/>
<path d="M297.534 391.722L272.788 391.721V391.396C272.788 388.743 273.803 386.197 275.609 384.321C277.416 382.445 279.865 381.39 282.42 381.39H282.42L297.534 381.391L297.534 391.722Z" fill="#2F2E41"/>
<path d="M244.08 383.994L236.405 383.994L232.754 353.241L244.081 353.241L244.08 383.994Z" fill="#9E616A"/>
<path d="M246.037 391.722L221.291 391.721V391.396C221.291 388.743 222.306 386.197 224.112 384.321C225.919 382.445 228.368 381.39 230.923 381.39H230.923L246.037 381.391L246.037 391.722Z" fill="#2F2E41"/>
<path d="M240.881 240.491L238.012 244.411C238.012 244.411 237.753 246.241 233.401 261.153L231.015 373.241H245.453L264.752 283.558L284.782 375.04L297.299 375.807L296.71 271.828C296.71 271.828 298.291 250.436 292.687 246.464C287.084 242.491 240.881 240.491 240.881 240.491Z" fill="#2F2E41"/>
<path d="M260.243 146.3C268.611 146.3 275.394 139.253 275.394 130.56C275.394 121.867 268.611 114.82 260.243 114.82C251.876 114.82 245.092 121.867 245.092 130.56C245.092 139.253 251.876 146.3 260.243 146.3Z" fill="#9E616A"/>
<path d="M275.485 133.024L275.235 132.504C274.848 131.7 271.645 125.017 271.243 123.298L267.211 123.791L256.711 123.793L258.17 121.519L254.313 122.042C252.903 122.22 251.555 122.748 250.383 123.581C249.663 124.077 249.055 124.729 248.6 125.491C247.222 127.942 245.117 131.951 245.096 131.991L244.895 132.375L243.145 129.318C243.122 129.199 240.955 117.453 248.21 113.469C248.584 112.679 251.772 106.469 259.308 106.888C260.137 105.907 261.304 105.304 262.556 105.21C264.278 105.117 266.064 106.056 267.858 108.014C270.241 110.613 273.505 114.173 275.479 118.126L276.024 118.933C276.797 120.088 277.18 121.477 277.113 122.883C277.532 125.126 277.383 127.444 276.681 129.609L275.485 133.024Z" fill="#2F2E41"/>
<path d="M271.788 149.262L280.171 154.076L296.64 158.866L291.724 203.639L292.618 247.741C292.618 247.741 264.742 267.58 238.012 244.411V188.899L239.594 158.866C239.594 158.866 245.99 156.978 249.211 160.235L255.319 151.991L271.788 149.262Z" fill="#E4E4E4"/>
<path d="M243.287 162.991L239.593 158.866L219.238 156.471L221.148 123.992L210.05 115.767L201.897 161.491L239.561 188.899L243.287 162.991Z" fill="#E4E4E4"/>
<path d="M284.548 262.315C284.397 261.485 284.422 260.631 284.622 259.813C284.823 258.994 285.193 258.231 285.708 257.578C286.223 256.924 286.869 256.396 287.602 256.03C288.335 255.664 289.136 255.469 289.949 255.46L296.216 235.991L302.553 244.385L295.63 261.586C295.555 263.006 294.981 264.348 294.017 265.357C293.053 266.367 291.767 266.974 290.401 267.064C289.035 267.154 287.685 266.72 286.606 265.845C285.527 264.969 284.795 263.714 284.548 262.315Z" fill="#9E616A"/>
<path d="M290.452 163.991L296.639 158.866C296.639 158.866 302.966 162.491 304.891 168.991C306.816 175.491 310.185 212.491 310.185 212.491L301.041 259.991L290.814 252.623L295.747 214.991L287.083 187.491L290.452 163.991Z" fill="#E4E4E4"/>
<path d="M212.892 87.5537H56.8599V126.945H212.892V87.5537Z" fill="#E6E6E6"/>
<path d="M60.9536 122.691H208.798V91.8071H60.9536V122.691Z" fill="white"/>
<path d="M89.1132 119.015C95.3682 119.015 100.439 113.747 100.439 107.249C100.439 100.751 95.3682 95.4829 89.1132 95.4829C82.8583 95.4829 77.7876 100.751 77.7876 107.249C77.7876 113.747 82.8583 119.015 89.1132 119.015Z" fill="#E08438"/>
<path d="M191.964 102.645H116.196V105.203H191.964V102.645Z" fill="#E08438"/>
<path d="M191.964 109.295H116.196V111.853H191.964V109.295Z" fill="#E08438"/>
<path d="M0 147.424L132.022 157.429V193.441L0 190.894V147.424Z" fill="#E6E6E6"/>
<path d="M4.15869 186.306L129.139 189.482V161.116L4.15869 152.408V186.306Z" fill="white"/>
<path d="M31.5895 158.209C33.0324 158.306 34.4376 158.729 35.707 159.448C36.9802 160.171 38.1097 161.138 39.0355 162.299C39.9975 163.5 40.751 164.866 41.2624 166.335C41.8018 167.881 42.0771 169.513 42.0758 171.158C42.0814 172.777 41.8059 174.384 41.2624 175.902C40.7582 177.312 40.0027 178.61 39.0355 179.729C38.1067 180.804 36.9734 181.667 35.707 182.264C34.4141 182.867 33.0061 183.157 31.5895 183.111C30.1397 183.063 28.7179 182.683 27.4256 181.999C26.1164 181.304 24.9497 180.351 23.9901 179.194C22.9833 177.984 22.1929 176.597 21.6563 175.098C21.0868 173.514 20.7957 171.838 20.797 170.148C20.7907 168.483 21.082 166.831 21.6563 165.277C22.1861 163.841 22.9788 162.526 23.9907 161.404C24.9545 160.335 26.1253 159.49 27.4261 158.926C28.7431 158.36 30.1673 158.115 31.5895 158.209Z" fill="#E6E6E6"/>
<path d="M56.1787 167.12L117.007 170.413V172.806L56.1787 169.736V167.12Z" fill="#E6E6E6"/>
<path d="M56.1787 173.923L117.007 176.636V179.029L56.1787 176.539V173.923Z" fill="#E6E6E6"/>
<path d="M0 220.581L132.022 218.034V254.046L0 264.051V220.581Z" fill="#E6E6E6"/>
<path d="M4.15869 259.066L129.139 250.358V221.995L4.15869 225.171V259.066Z" fill="white"/>
<path d="M20.8062 240.753C20.8703 239.064 21.2263 237.401 21.8573 235.843C22.4499 234.375 23.2923 233.03 24.344 231.873C25.3451 230.767 26.5454 229.875 27.8768 229.25C29.1936 228.634 30.6258 228.33 32.0696 228.359C33.4866 228.39 34.8785 228.754 36.1402 229.424C37.3808 230.09 38.4767 231.012 39.36 232.135C40.2811 233.305 40.9843 234.643 41.4334 236.081C41.9171 237.626 42.1305 239.248 42.0635 240.871C42.0028 242.514 41.666 244.133 41.0683 245.655C40.5031 247.098 39.6984 248.427 38.6909 249.581C37.7232 250.695 36.5587 251.604 35.2605 252.261C33.9642 252.915 32.5452 253.263 31.1045 253.283C29.6779 253.3 28.2663 252.979 26.9779 252.342C25.7012 251.705 24.5673 250.797 23.6495 249.677C22.6843 248.5 21.9455 247.141 21.473 245.675C20.9614 244.091 20.7353 242.422 20.8062 240.753Z" fill="#E6E6E6"/>
<path d="M56.1787 234.935L117.007 232.445V234.839L56.1787 237.552V234.935Z" fill="#E6E6E6"/>
<path d="M56.1787 241.738L117.007 238.668V241.062L56.1787 244.355V241.738Z" fill="#E6E6E6"/>
<path d="M379.093 392.24H66.3813C66.1636 392.24 65.9549 392.148 65.801 391.984C65.647 391.82 65.5605 391.597 65.5605 391.365C65.5605 391.133 65.647 390.91 65.801 390.746C65.9549 390.582 66.1636 390.489 66.3813 390.489H379.093C379.311 390.489 379.52 390.582 379.674 390.746C379.828 390.91 379.914 391.133 379.914 391.365C379.914 391.597 379.828 391.82 379.674 391.984C379.52 392.148 379.311 392.24 379.093 392.24Z" fill="#CACACA"/>
</g>
<defs>
<clipPath id="clip0_150_1976">
<rect width="379.914" height="304.687" fill="white" transform="translate(0 87.5537)"/>
</clipPath>
</defs>
</svg>
