<svg width="79" height="53" viewBox="0 0 79 53" fill="none" xmlns="http://www.w3.org/2000/svg">
<path fill-rule="evenodd" clip-rule="evenodd" d="M36.4091 3.52875C30.1153 5.29261 23.6696 7.94165 17.9042 11.6776H17.8315C5.46189 19.5271 1.67109 28.1837 0.508757 32.8309C0.469132 32.9676 0.442717 33.1108 0.409696 33.2475C0.33705 33.5794 0.271006 33.8918 0.224777 34.1782C0.204964 34.2954 0.178549 34.4125 0.158736 34.5362C-0.0129725 35.6101 0.000234761 36.2219 0.000234761 36.2219L0.0398607 36.1699C-0.098827 42.978 4.62316 50.7298 16.6097 52.3049C30.3729 54.1339 44.5322 51.4393 55.3565 44.9826C44.6445 49.5908 33.0938 51.4523 22.4412 49.8251C1.15597 46.5838 4.76845 27.9559 22.6856 15.4852C44.3539 0.39807 77.9824 -2.02967 78.3522 18.7591C79.607 2.76073 59.6228 -2.96042 36.4223 3.52875" fill="#EC174F"/>
</svg>
